<svg xmlns="http://www.w3.org/2000/svg" width="56.067" height="56.067" viewBox="0 0 56.067 56.067"><defs><style>.a{fill:#ff8d20;stroke:#ff8d20;stroke-width:0.5px;}</style></defs><g transform="translate(0.25 0.25)"><g transform="translate(0 0)"><path class="a" d="M209.977,52.349A14.326,14.326,0,1,0,224.3,66.675,14.342,14.342,0,0,0,209.977,52.349Zm0,2.171a12.155,12.155,0,1,1-12.155,12.155A12.169,12.169,0,0,1,209.977,54.52Z" transform="translate(-174.417 -46.668)"/><path class="a" d="M277.324,100.9a1.085,1.085,0,1,1-1.535,1.535,7.183,7.183,0,0,0-10.159,0A1.085,1.085,0,0,1,264.1,100.9a9.354,9.354,0,0,1,13.229,0Z" transform="translate(-235.15 -87.505)"/><path class="a" d="M0,56.115a4.587,4.587,0,0,0,7.83,3.243L20.871,46.318a3.893,3.893,0,0,0,4.69-.618l2.153-2.153A20.009,20.009,0,1,0,40.68,5.8a1.085,1.085,0,0,0-.554,2.1,17.837,17.837,0,1,1-9.132,0,1.085,1.085,0,0,0-.554-2.1A20.01,20.01,0,0,0,17.156,32.988L15,35.141a3.893,3.893,0,0,0-.618,4.69L1.343,52.872A4.557,4.557,0,0,0,0,56.115ZM21.6,44.165,16.538,39.1a1.718,1.718,0,0,1,0-2.427l1.638-1.638a20.156,20.156,0,0,0,7.489,7.489l-1.638,1.639A1.718,1.718,0,0,1,21.6,44.165ZM2.171,56.115a2.4,2.4,0,0,1,.708-1.708L15.825,41.46l3.417,3.417L6.3,57.824a2.416,2.416,0,0,1-4.125-1.708Z" transform="translate(0 -5.135)"/><path class="a" d="M318.735,2.171a1.086,1.086,0,0,1-1.085-1.085,1.085,1.085,0,1,1,1.853.767A1.093,1.093,0,0,1,318.735,2.171Z" transform="translate(-283.176 0)"/></g></g></svg>