<svg xmlns="http://www.w3.org/2000/svg" width="30" height="25.054" viewBox="0 0 30 25.054"><defs><style>.a{fill:#9bdb0e;}</style></defs><g transform="translate(0 -7.858)"><g transform="translate(0 7.858)"><path class="a" d="M9.6,19.212a7.949,7.949,0,0,0-2.2-.321,6.9,6.9,0,0,0-2.754.564c.692-2.535,2.355-6.908,5.668-7.4a.787.787,0,0,0,.642-.566l.724-2.59a.787.787,0,0,0-.651-.991,5.5,5.5,0,0,0-.741-.05c-3.977,0-7.915,4.151-9.577,10.094C-.258,21.439-.544,26.681,1.859,29.98A7.174,7.174,0,0,0,7.69,32.911H7.72A6.979,6.979,0,0,0,9.6,19.212Z" transform="translate(0 -7.858)"/><path class="a" d="M62.424,22.508a7,7,0,0,0-4.2-3.3,7.948,7.948,0,0,0-2.2-.321,6.9,6.9,0,0,0-2.754.564c.692-2.535,2.355-6.908,5.669-7.4a.788.788,0,0,0,.642-.566l.724-2.59a.787.787,0,0,0-.651-.991,5.493,5.493,0,0,0-.741-.05c-3.977,0-7.915,4.151-9.577,10.094-.975,3.487-1.261,8.729,1.142,12.029a7.173,7.173,0,0,0,5.831,2.93h.031a6.979,6.979,0,0,0,6.077-10.4Z" transform="translate(-33.324 -7.858)"/></g></g></svg>