<svg xmlns="http://www.w3.org/2000/svg" width="79.5" height="51.053" viewBox="0 0 79.5 51.053"><defs><style>.a{fill:#ff8d20;stroke:#ff8d20;stroke-width:0.5px;}</style></defs><g transform="translate(0.25 -91.934)"><g transform="translate(22.264 92.184)"><g transform="translate(0 0)"><path class="a" d="M175.139,120.663l-6.725-2.989a1.317,1.317,0,0,1-.782-1.2v-1.847a9.8,9.8,0,0,0,3.711-7.678v-2.6a2.4,2.4,0,0,0,1.237-2.1V102a9.826,9.826,0,0,0-9.815-9.815h-2.474A9.826,9.826,0,0,0,150.476,102v2.289a2.427,2.427,0,0,0,.923,1.944,2.257,2.257,0,0,0,.313.2v.511a9.8,9.8,0,0,0,3.711,7.677v1.847a1.318,1.318,0,0,1-.782,1.2l-6.725,2.989a6.11,6.11,0,0,0-3.625,5.578v15.338a1.157,1.157,0,0,0,2.314,0V126.241a3.781,3.781,0,0,1,.023-.4l3.1,3.1a2.537,2.537,0,0,1,.748,1.806v10.832a1.157,1.157,0,1,0,2.314,0V130.747a4.836,4.836,0,0,0-1.426-3.442l-3.694-3.694a3.78,3.78,0,0,1,1.186-.834l6.611-2.938,4.9,4.9v16.837a1.157,1.157,0,1,0,2.314,0V124.742l4.9-4.9,6.611,2.938a3.778,3.778,0,0,1,1.186.834l-3.694,3.694a4.836,4.836,0,0,0-1.426,3.442v10.832a1.157,1.157,0,1,0,2.314,0V130.747a2.537,2.537,0,0,1,.748-1.806l3.1-3.1a3.775,3.775,0,0,1,.023.4v15.338a1.157,1.157,0,0,0,2.314,0V126.241A6.111,6.111,0,0,0,175.139,120.663Zm-13.611,1.964-4.3-4.3a3.625,3.625,0,0,0,.512-1.853V116a9.807,9.807,0,0,0,7.58,0v.471a3.624,3.624,0,0,0,.512,1.853Zm0-8.179a7.509,7.509,0,0,1-7.5-7.5v-.52a6.841,6.841,0,0,0,2.1-1.364,1.157,1.157,0,0,0-1.57-1.7,4.156,4.156,0,0,1-1.718,1.026.187.187,0,0,1-.031.006.235.235,0,0,1-.02-.1V102a7.509,7.509,0,0,1,7.5-7.5h2.474a7.509,7.509,0,0,1,7.5,7.5v.252a.074.074,0,0,1-.052.076c-6.93,1.369-10.405-1.211-11.578-2.383A1.157,1.157,0,0,0,157,101.581c3.594,3.594,8.837,3.658,12.03,3.275v2.091A7.509,7.509,0,0,1,161.528,114.448Z" transform="translate(-144.292 -92.184)"/></g></g><g transform="translate(0 98.368)"><g transform="translate(0 0)"><path class="a" d="M20.867,148.265v-2.474a8.577,8.577,0,0,0-3.933-7.206,4.868,4.868,0,1,0-9.291,0,8.576,8.576,0,0,0-3.933,7.206v2.474a8.574,8.574,0,0,0,3.711,7.058v2.545a1.309,1.309,0,0,1-.728,1.178l-4,2A4.842,4.842,0,0,0,0,165.4v10.075a1.157,1.157,0,0,0,2.314,0V165.9L4.2,167.786a2.537,2.537,0,0,1,.748,1.806v5.884a1.157,1.157,0,0,0,2.314,0v-5.884a4.836,4.836,0,0,0-1.426-3.442l-2.624-2.624c-.013-.013-.026-.024-.039-.035a2.581,2.581,0,0,1,.553-.374l4-2a3.686,3.686,0,0,0,.574-.358l2.829,2.829v11.889a1.157,1.157,0,0,0,2.314,0v-11.89l2.829-2.829a3.67,3.67,0,0,0,.574.358l1.1.552a1.157,1.157,0,1,0,1.035-2.07l-1.1-.552a1.309,1.309,0,0,1-.728-1.177v-2.545A8.574,8.574,0,0,0,20.867,148.265Zm-8.578-13.686a2.556,2.556,0,0,1,2.553,2.553,2.594,2.594,0,0,1-.04.456,8.578,8.578,0,0,0-5.022,0,2.538,2.538,0,0,1,2.509-3.008Zm0,4.948a6.271,6.271,0,0,1,6.264,6.264v.419a7.265,7.265,0,0,1-7.812-2.351A1.157,1.157,0,0,0,9,143.736a7.571,7.571,0,0,1-2.968,1.895A6.27,6.27,0,0,1,12.289,139.527Zm0,21.943L9.615,158.8a3.664,3.664,0,0,0,.121-.929v-1.413a8.594,8.594,0,0,0,5.107,0v1.413a3.664,3.664,0,0,0,.121.929Zm0-6.942a6.271,6.271,0,0,1-6.264-6.264v-.24a9.279,9.279,0,0,0,3.719-1.853,10.441,10.441,0,0,0,2.146,1.562,9.2,9.2,0,0,0,4.423,1.141,9.7,9.7,0,0,0,2.231-.267A6.272,6.272,0,0,1,12.289,154.529Z" transform="translate(0 -132.265)"/></g></g><g transform="translate(55.659 100.842)"><g transform="translate(0 0)"><path class="a" d="M381.376,172.132l-6.476-3.238a1.309,1.309,0,0,1-.728-1.177v-1.64a7.324,7.324,0,0,0,2.474-5.489V159.27h.08a1.157,1.157,0,0,0,1.157-1.157V155.64a7.35,7.35,0,0,0-7.342-7.342h-2.474a7.35,7.35,0,0,0-7.342,7.342v2.474a1.157,1.157,0,0,0,1.157,1.157l.08,0v1.318a7.324,7.324,0,0,0,2.474,5.489v1.64a1.309,1.309,0,0,1-.728,1.177,1.157,1.157,0,1,0,1.035,2.07,3.684,3.684,0,0,0,.574-.358l2.83,2.829v15.6a1.157,1.157,0,1,0,2.314,0v-15.6l2.829-2.829a3.672,3.672,0,0,0,.574.358l6.267,3.133-1.9,1.9a4.836,4.836,0,0,0-1.426,3.442v9.595a1.157,1.157,0,1,0,2.314,0V179.44a2.537,2.537,0,0,1,.748-1.806l1.8-1.8a2.58,2.58,0,0,1,.085.652v12.549a1.157,1.157,0,0,0,2.314,0V176.486A4.841,4.841,0,0,0,381.376,172.132ZM363.04,156.718v-1.079h0a5.033,5.033,0,0,1,5.027-5.027h2.474a5.033,5.033,0,0,1,5.027,5.027v1.285a17.7,17.7,0,0,1-8.1-2.248,1.157,1.157,0,0,0-1.46.145A7.579,7.579,0,0,1,363.04,156.718Zm6.264,14.6-2.674-2.674a3.665,3.665,0,0,0,.121-.929v-.246a7.335,7.335,0,0,0,5.107,0v.246a3.657,3.657,0,0,0,.121.929Zm0-5.7a5.033,5.033,0,0,1-5.027-5.027v-1.866h0a9.793,9.793,0,0,0,2.716-1.657,20.559,20.559,0,0,0,7.339,2.086v1.437A5.033,5.033,0,0,1,369.3,165.614Z" transform="translate(-360.726 -148.298)"/></g></g></g></svg>