<svg xmlns="http://www.w3.org/2000/svg" width="50.995" height="56.548" viewBox="0 0 50.995 56.548"><defs><style>.a{fill:#ff8d20;stroke:#ff8d20;}</style></defs><g transform="translate(0.44 0.496)"><g transform="translate(0.054 -0.015)"><path class="a" d="M43.562,6.519C36.266.779,29.98-.274,18.656,2.339,15.58,3.048,12.1,4.13,9.592,6.783a17.592,17.592,0,0,0-3.7,6.057,24.6,24.6,0,0,0-.839,3.029l-.073.32a12.55,12.55,0,0,1-.818,2.171A5.568,5.568,0,0,0,3.4,21.138,3.536,3.536,0,0,0,4.744,23.2c.453.416.751.708.754.975a1.685,1.685,0,0,1-.179.429A2.928,2.928,0,0,0,5,25.447a5.637,5.637,0,0,1-1.3,3.01C.791,31.59-.04,32.671.062,33.789a2.685,2.685,0,0,0,1.35,1.823,6.745,6.745,0,0,0,.964.561c.4.2,1.066.544,1.111.788a1.585,1.585,0,0,1-.1.931c-.136.291-.278.541-.4.759-.361.639-.906,1.6-.052,2.325.2.177.543.446.855.685A2.32,2.32,0,0,0,3.489,43a1.32,1.32,0,0,0,.543.9,6.854,6.854,0,0,0,.648.4c.543.31.754.455.827.741a1.977,1.977,0,0,1-.078,1.037,5.255,5.255,0,0,0,.149,3.3,3.419,3.419,0,0,0,4.028,2.449A75.04,75.04,0,0,0,17.4,49.5c1.278.762,2.492,2.614,3.368,5.161A2.789,2.789,0,0,0,23.4,56.552H42.067a2.778,2.778,0,0,0,2.485-4.015,25.39,25.39,0,0,1-2.13-8.127,15.689,15.689,0,0,1,1.2-8.131A20.213,20.213,0,0,1,46.073,32.4c1.831-2.475,3.907-5.278,3.975-10.051a27.808,27.808,0,0,0-.966-7.864,15.351,15.351,0,0,0-5.52-7.964ZM44.586,31.3a21.913,21.913,0,0,0-2.655,4.244,17.545,17.545,0,0,0-1.348,9.092,27.147,27.147,0,0,0,2.315,8.74.926.926,0,0,1-.831,1.328H23.4a.938.938,0,0,1-.881-.641,13.658,13.658,0,0,0-3.04-5.278l.692-.243c.684-.241,1.2-.422,1.459-.5,3.961-1.246,5.942-3.055,5.888-5.363a.9.9,0,0,0-.947-.9.926.926,0,0,0-.9.947c.022.955-.756,2.346-4.594,3.554-.27.085-.806.273-1.515.522-.664.233-1.481.522-2.384.833h-.007a76.656,76.656,0,0,1-7.931,2.4,1.632,1.632,0,0,1-1.9-1.243,3.412,3.412,0,0,1-.093-2.269A3.723,3.723,0,0,0,7.306,44.6a3.061,3.061,0,0,0-1.7-1.9c-.067-.038-.133-.075-.2-.114a3.362,3.362,0,0,1,.355-.576A.926.926,0,0,0,5.581,40.7c-.222-.165-.75-.562-1.13-.866.047-.087.1-.185.149-.269.142-.251.3-.542.463-.873a3.435,3.435,0,0,0,.249-2.069c-.216-1.136-1.3-1.689-2.088-2.093a5.529,5.529,0,0,1-.7-.4,4.99,4.99,0,0,1-.612-.5C1.928,33.1,3.965,30.9,5.06,29.718a7.415,7.415,0,0,0,1.772-3.964,2.339,2.339,0,0,1,.141-.31,2.737,2.737,0,0,0,.379-1.288,3.232,3.232,0,0,0-1.357-2.325c-.37-.343-.726-.667-.766-.952a5.98,5.98,0,0,1,.618-1.765,14.067,14.067,0,0,0,.926-2.508l.075-.323a23.185,23.185,0,0,1,.771-2.805,15.773,15.773,0,0,1,3.314-5.424C13.1,5.764,16.118,4.82,19.067,4.14c12.08-2.785,17.341-.893,23.353,3.836A13.366,13.366,0,0,1,47.3,14.987a25.939,25.939,0,0,1,.9,7.333c-.058,4.175-1.784,6.507-3.612,8.976Z" transform="translate(-0.054 -0.985)"/><path class="a" d="M37.9,16.828a3.862,3.862,0,1,0-.921-1.656,11.338,11.338,0,0,0-2.742,3.554,9.117,9.117,0,0,0-1.918-1.1,8.171,8.171,0,0,1-.283-5.24c.063,0,.122.019.185.019a3.733,3.733,0,1,0-1.958-.573,12.231,12.231,0,0,0-.185,4.954q-1.181-.37-2.592-.693c-.852-.192-1.662-.355-2.424-.493a5.9,5.9,0,0,1-1.7-2.528,3.713,3.713,0,1,0-1.864.2,8.369,8.369,0,0,0,.787,1.864c-1.831-.269-3.559-.463-4.949-.6a3.718,3.718,0,1,0-.155,1.845c1.972.185,4.629.5,7.281.981l.148.028a13.084,13.084,0,0,0-2.462,2.58,3.647,3.647,0,0,0-1.039-.169,3.717,3.717,0,1,0,2.645,1.119,9.565,9.565,0,0,1,2.9-2.666,4.9,4.9,0,0,1,.684-.306,25.832,25.832,0,0,1,3.841,1.175.97.97,0,0,0,.088.044l.016.007.015.007a6.56,6.56,0,0,1,2.124,1.271,1.8,1.8,0,0,1,.293.382c.426.718.332,1.781-.3,3.353-.344.867-.8,1.769-1.274,2.725-1.633,3.26-3.483,6.955-.5,9.351C35.121,39.06,35.244,48.68,35,52.151a.926.926,0,0,0,.857.991h.066a.926.926,0,0,0,.926-.86c.04-.549.9-13.493-4.047-17.454-1.69-1.355-.7-3.68,1-7.074.413-.823.824-1.667,1.172-2.491A2.705,2.705,0,0,1,37.543,26a3.763,3.763,0,1,0,1.441-1.2,5.256,5.256,0,0,0-3.342-1.481,4.794,4.794,0,0,0-.123-2.956A10.072,10.072,0,0,1,37.9,16.828ZM40.55,12.4A1.852,1.852,0,1,1,38.7,14.254,1.852,1.852,0,0,1,40.55,12.4ZM32.217,6.847A1.852,1.852,0,1,1,30.366,8.7,1.852,1.852,0,0,1,32.217,6.847ZM20.181,9.625a1.852,1.852,0,1,1,1.852,1.852A1.852,1.852,0,0,1,20.181,9.625ZM13.7,17.032a1.852,1.852,0,1,1,1.852-1.852A1.852,1.852,0,0,1,13.7,17.032Zm7.407,8.333a1.852,1.852,0,1,1,1.852-1.852A1.852,1.852,0,0,1,21.107,25.365Zm21.3,2.778a1.852,1.852,0,1,1-1.852-1.852A1.852,1.852,0,0,1,42.4,28.142Z" transform="translate(-0.787 -1.278)"/></g></g></svg>