<svg xmlns="http://www.w3.org/2000/svg" width="55.5" height="55.5" viewBox="0 0 55.5 55.5"><defs><style>.a{fill:#ff8d20;stroke:#ff8d20;stroke-width:0.5px;}</style></defs><g transform="translate(0.25 0.25)"><path class="a" d="M25.9,40.792a14.9,14.9,0,1,1,14.9-14.9A14.913,14.913,0,0,1,25.9,40.792Zm0-27.5A12.6,12.6,0,1,0,38.5,25.9,12.619,12.619,0,0,0,25.9,13.292Z" transform="translate(14.208 14.208)"/><path class="a" d="M19.729,26.459a1.158,1.158,0,0,1-.811-.335l-4.583-4.583a1.146,1.146,0,0,1,1.62-1.62l3.717,3.717,7.214-8.245A1.146,1.146,0,0,1,28.612,16.9l-8.021,9.167a1.154,1.154,0,0,1-.825.392h-.037Z" transform="translate(18.083 19.375)"/><path class="a" d="M21.771,44.25H5.729A5.736,5.736,0,0,1,0,38.521V8.729A5.736,5.736,0,0,1,5.729,3h4.583a1.146,1.146,0,1,1,0,2.292H5.729A3.442,3.442,0,0,0,2.292,8.729V38.521a3.442,3.442,0,0,0,3.438,3.438H21.771a1.146,1.146,0,1,1,0,2.292Z" transform="translate(0 3.875)"/><path class="a" d="M22.313,16.75A1.146,1.146,0,0,1,21.167,15.6V8.729a3.442,3.442,0,0,0-3.437-3.438H13.146a1.146,1.146,0,1,1,0-2.292h4.583a5.736,5.736,0,0,1,5.729,5.729V15.6A1.146,1.146,0,0,1,22.313,16.75Z" transform="translate(15.5 3.875)"/><path class="a" d="M21.188,13.75H7.438A3.442,3.442,0,0,1,4,10.313V5.729A1.146,1.146,0,0,1,5.146,4.583H8.7a5.731,5.731,0,0,1,11.229,0h3.552a1.146,1.146,0,0,1,1.146,1.146v4.583A3.442,3.442,0,0,1,21.188,13.75ZM6.292,6.875v3.438a1.148,1.148,0,0,0,1.146,1.146h13.75a1.148,1.148,0,0,0,1.146-1.146V6.875H18.9A1.146,1.146,0,0,1,17.75,5.729a3.438,3.438,0,1,0-6.875,0A1.146,1.146,0,0,1,9.729,6.875Z" transform="translate(5.167)"/><path class="a" d="M27.063,10.292H4.146A1.146,1.146,0,1,1,4.146,8H27.063a1.146,1.146,0,1,1,0,2.292Z" transform="translate(3.875 10.333)"/><path class="a" d="M20.188,13.292H4.146a1.146,1.146,0,1,1,0-2.292H20.188a1.146,1.146,0,1,1,0,2.292Z" transform="translate(3.875 14.208)"/><path class="a" d="M15.6,16.292H4.146a1.146,1.146,0,1,1,0-2.292H15.6a1.146,1.146,0,0,1,0,2.292Z" transform="translate(3.875 18.083)"/></g></svg>