<svg xmlns="http://www.w3.org/2000/svg" width="76.097" height="48.5" viewBox="0 0 76.097 48.5"><defs><style>.a{fill:#ff8d20;stroke:#ff8d20;stroke-width:0.5px;}</style></defs><g transform="translate(0.25 -92)"><g transform="translate(0 92.25)"><path class="a" d="M65.381,113.371a8.631,8.631,0,1,0-9.9,0,14.954,14.954,0,0,0-5.1,2.992,19.351,19.351,0,0,0-7-3.814,10.934,10.934,0,1,0-11.308,0,19.512,19.512,0,0,0-6.926,3.769,15.075,15.075,0,0,0-5.041-2.932,8.631,8.631,0,1,0-9.9,0A15.15,15.15,0,0,0,0,127.7v.987a.064.064,0,0,0,.06.06H18.353a20.119,20.119,0,0,0-.165,2.528v1.017a7.954,7.954,0,0,0,7.958,7.958H49.331a7.954,7.954,0,0,0,7.958-7.958v-1.017a20.119,20.119,0,0,0-.165-2.528H75.538a.064.064,0,0,0,.06-.06V127.7A15.208,15.208,0,0,0,65.381,113.371ZM54.193,106.3a6.237,6.237,0,1,1,6.357,6.237H60.31A6.228,6.228,0,0,1,54.193,106.3Zm-25.04-3.111a8.541,8.541,0,1,1,9.035,8.526H37.2A8.553,8.553,0,0,1,29.153,103.184ZM8.87,106.3a6.237,6.237,0,1,1,6.357,6.237h-.239A6.238,6.238,0,0,1,8.87,106.3Zm9.9,20.044H2.423a12.78,12.78,0,0,1,12.595-11.413H15.2a12.648,12.648,0,0,1,8.152,3.036A19.64,19.64,0,0,0,18.772,126.339Zm36.093,5.953a5.573,5.573,0,0,1-5.564,5.564H26.117a5.573,5.573,0,0,1-5.564-5.564v-1.017A17.182,17.182,0,0,1,37.2,114.119c.165.015.344.015.509.015s.344,0,.509-.015a17.182,17.182,0,0,1,16.648,17.157Zm1.78-5.953a19.588,19.588,0,0,0-4.532-8.317,12.709,12.709,0,0,1,8.227-3.1h.179a12.78,12.78,0,0,1,12.595,11.413Z" transform="translate(0 -92.25)"/></g></g></svg>